<svg width="18" height="18" viewBox="0 0 18 18" fill="none" xmlns="http://www.w3.org/2000/svg">
<path d="M9 0C4.03 0 0 4.02 0 8.99C0 13.96 4.02 17.98 8.99 17.99C13.96 17.99 17.98 13.97 17.99 9C17.99 4.03 13.96 0 9 0ZM9 8.25C10.69 8.25 12.06 9.63 12.06 11.31C12.06 12.76 11.04 13.98 9.68 14.29V15.05C9.68 15.43 9.37 15.73 9 15.73C8.63 15.73 8.32 15.43 8.32 15.05V14.29C6.96 13.98 5.94 12.76 5.94 11.3C5.94 10.92 6.24 10.62 6.62 10.62C7 10.62 7.3 10.92 7.3 11.3C7.3 12.24 8.06 13 9 13C9.94 13 10.7 12.24 10.7 11.3C10.7 10.36 9.94 9.6 9 9.6C7.31 9.6 5.94 8.22 5.94 6.54C5.94 5.09 6.96 3.87 8.32 3.56V2.8C8.32 2.42 8.63 2.12 9 2.12C9.38 2.12 9.68 2.42 9.68 2.8V3.56C11.04 3.87 12.06 5.09 12.06 6.55C12.06 6.93 11.76 7.23 11.38 7.23C11 7.23 10.7 6.93 10.7 6.55C10.7 5.61 9.94 4.85 9 4.85C8.06 4.85 7.3 5.61 7.3 6.55C7.3 7.49 8.06 8.25 9 8.25Z" fill="white"/>
</svg>
