<svg width="23" height="23" viewBox="0 0 23 23" fill="none" xmlns="http://www.w3.org/2000/svg">
<path d="M11.3702 0.000237392C5.13024 -0.0397626 0.0402374 4.98024 0.000237392 11.2202C-0.0397626 17.4602 4.98024 22.5502 11.2202 22.5902C17.4602 22.6302 22.5502 17.6102 22.5902 11.3702C22.6402 5.13024 17.6102 0.0402374 11.3702 0.000237392ZM11.3802 3.89024C13.3802 3.90024 14.9802 5.53024 14.9702 7.53024C14.9602 9.53024 13.3202 11.8102 11.3302 11.8002C9.33024 11.7902 7.73024 9.48024 7.75024 7.49024C7.76024 5.49024 9.39024 3.89024 11.3902 3.90024L11.3802 3.89024ZM11.2702 20.4502C7.41024 20.4202 4.30024 18.8402 4.31024 16.9102C4.32024 14.9802 7.46024 13.4402 11.3102 13.4702C15.1702 13.5002 18.2802 15.0802 18.2702 17.0102C18.2602 18.9402 15.1202 20.4802 11.2702 20.4502Z" fill="#DDDDDD"/>
</svg>
