<svg width="15" height="15" viewBox="0 0 15 15" fill="none" xmlns="http://www.w3.org/2000/svg">
<path d="M4.36999 0.999993H4.56999C4.78999 1.09999 4.85999 1.27999 4.84999 1.50999C4.83999 1.80999 4.84999 2.10999 4.84999 2.40999C4.84999 2.44999 4.84999 2.47999 4.84999 2.51999H5.60999C5.60999 2.17999 5.60999 1.83999 5.60999 1.50999C5.60999 1.26999 5.66999 1.09999 5.88999 0.999993H6.08999C6.30999 1.09999 6.37999 1.27999 6.36999 1.50999C6.35999 1.80999 6.36999 2.10999 6.36999 2.40999C6.36999 2.44999 6.36999 2.47999 6.36999 2.51999H7.12999C7.12999 2.17999 7.12999 1.83999 7.12999 1.50999C7.12999 1.26999 7.18999 1.09999 7.40999 0.999993H7.60999C7.82999 1.09999 7.89999 1.27999 7.88999 1.50999C7.87999 1.80999 7.88999 2.10999 7.88999 2.40999C7.88999 2.44999 7.88999 2.47999 7.88999 2.51999H8.64999C8.64999 2.17999 8.64999 1.83999 8.64999 1.50999C8.64999 1.26999 8.70999 1.09999 8.92999 0.999993H9.12999C9.34999 1.09999 9.41999 1.27999 9.40999 1.50999C9.39999 1.80999 9.40999 2.10999 9.40999 2.40999C9.40999 2.44999 9.40999 2.47999 9.40999 2.51999H10.17C10.17 2.17999 10.17 1.83999 10.17 1.50999C10.17 1.26999 10.23 1.09999 10.45 0.999993H10.65C10.87 1.09999 10.94 1.27999 10.93 1.50999C10.92 1.80999 10.93 2.10999 10.93 2.40999C10.93 2.44999 10.93 2.47999 10.93 2.51999C11.14 2.51999 11.33 2.51999 11.53 2.51999C12.1 2.51999 12.48 2.89999 12.48 3.46999C12.48 3.66999 12.48 3.86999 12.48 4.07999C12.83 4.07999 13.16 4.07999 13.5 4.07999C13.74 4.07999 13.91 4.13999 14.01 4.35999V4.55999C13.91 4.77999 13.73 4.84999 13.5 4.83999C13.2 4.82999 12.9 4.83999 12.6 4.83999C12.56 4.83999 12.53 4.83999 12.49 4.83999V5.59999C12.83 5.59999 13.17 5.59999 13.5 5.59999C13.74 5.59999 13.91 5.65999 14.01 5.87999V6.07999C13.91 6.29999 13.73 6.36999 13.5 6.35999C13.2 6.34999 12.9 6.35999 12.6 6.35999C12.56 6.35999 12.53 6.35999 12.49 6.35999V7.11999C12.83 7.11999 13.17 7.11999 13.5 7.11999C13.74 7.11999 13.91 7.17999 14.01 7.39999V7.59999C13.91 7.81999 13.73 7.88999 13.5 7.87999C13.2 7.86999 12.9 7.87999 12.6 7.87999C12.56 7.87999 12.53 7.87999 12.49 7.87999V8.63999C12.83 8.63999 13.17 8.63999 13.5 8.63999C13.74 8.63999 13.91 8.69999 14.01 8.91999V9.11999C13.91 9.33999 13.73 9.40999 13.5 9.39999C13.2 9.38999 12.9 9.39999 12.6 9.39999C12.56 9.39999 12.53 9.39999 12.49 9.39999V10.16C12.83 10.16 13.17 10.16 13.5 10.16C13.74 10.16 13.91 10.22 14.01 10.44V10.64C13.91 10.86 13.73 10.93 13.5 10.92C13.17 10.91 12.83 10.92 12.48 10.92C12.48 11.12 12.48 11.31 12.48 11.5C12.48 12.11 12.11 12.47 11.5 12.47C11.31 12.47 11.12 12.47 10.92 12.47C10.92 12.85 10.92 13.22 10.92 13.59C10.92 13.83 10.76 14 10.54 14C10.32 14 10.16 13.83 10.16 13.59C10.16 13.26 10.16 12.94 10.16 12.61C10.16 12.57 10.16 12.52 10.16 12.48H9.38999C9.38999 12.48 9.38999 12.57 9.38999 12.61C9.38999 12.94 9.38999 13.26 9.38999 13.59C9.38999 13.83 9.22999 14 9.00999 14C8.78999 14 8.62999 13.83 8.61999 13.58C8.61999 13.31 8.61999 13.04 8.61999 12.78C8.61999 12.68 8.61999 12.58 8.61999 12.48H7.84999C7.84999 12.54 7.84999 12.59 7.84999 12.64C7.84999 12.97 7.84999 13.29 7.84999 13.62C7.84999 13.82 7.69999 13.98 7.49999 14C7.30999 14.02 7.13999 13.89 7.09999 13.7C7.08999 13.65 7.08999 13.59 7.08999 13.54C7.08999 13.19 7.08999 12.84 7.08999 12.48H6.31999C6.31999 12.85 6.31999 13.22 6.31999 13.58C6.31999 13.83 6.15999 14 5.93999 14C5.71999 14 5.55999 13.83 5.55999 13.58C5.55999 13.25 5.55999 12.93 5.55999 12.6C5.55999 12.56 5.55999 12.52 5.55999 12.48H4.78999C4.78999 12.48 4.78999 12.57 4.78999 12.61C4.78999 12.93 4.78999 13.26 4.78999 13.58C4.78999 13.83 4.62999 14 4.40999 14C4.17999 14 4.01999 13.83 4.01999 13.57C4.01999 13.3 4.01999 13.03 4.01999 12.75C4.01999 12.66 4.01999 12.57 4.01999 12.46C3.77999 12.46 3.55999 12.46 3.32999 12.46C2.86999 12.45 2.48999 12.08 2.46999 11.62C2.46999 11.45 2.46999 11.28 2.46999 11.11C2.46999 11.04 2.46999 10.98 2.46999 10.91C2.07999 10.91 1.69999 10.91 1.32999 10.91C1.01999 10.91 0.839986 10.59 0.999986 10.33C1.07999 10.2 1.19999 10.14 1.35999 10.15C1.72999 10.15 2.09999 10.15 2.46999 10.15V9.37999C2.09999 9.37999 1.72999 9.37999 1.36999 9.37999C1.11999 9.37999 0.949986 9.21999 0.949986 8.99999C0.949986 8.77999 1.11999 8.61999 1.36999 8.61999C1.69999 8.61999 2.01999 8.61999 2.34999 8.61999C2.38999 8.61999 2.42999 8.61999 2.46999 8.61999V7.84999H2.33999C2.01999 7.84999 1.68999 7.84999 1.36999 7.84999C1.11999 7.84999 0.949986 7.68999 0.949986 7.46999C0.949986 7.23999 1.11999 7.07999 1.37999 7.07999C1.64999 7.07999 1.91999 7.07999 2.19999 7.07999C2.28999 7.07999 2.37999 7.07999 2.47999 7.07999V6.30999C2.09999 6.30999 1.71999 6.30999 1.34999 6.30999C1.03999 6.30999 0.859986 5.98999 1.01999 5.72999C1.09999 5.59999 1.21999 5.53999 1.36999 5.53999C1.73999 5.53999 2.10999 5.53999 2.47999 5.53999V4.76999C2.09999 4.76999 1.72999 4.76999 1.35999 4.76999C1.11999 4.76999 0.949986 4.60999 0.949986 4.38999C0.949986 4.16999 1.11999 4.00999 1.35999 4.00999C1.68999 4.00999 2.01999 4.00999 2.34999 4.00999C2.38999 4.00999 2.42999 4.00999 2.47999 4.00999C2.47999 3.79999 2.47999 3.59999 2.47999 3.39999C2.47999 2.83999 2.85999 2.45999 3.41999 2.45999C3.61999 2.45999 3.82999 2.45999 4.03999 2.45999C4.03999 2.10999 4.03999 1.77999 4.03999 1.43999C4.03999 1.19999 4.09999 1.02999 4.31999 0.929993L4.36999 0.999993ZM11 7.53999C11 6.52999 11 5.51999 11 4.50999C11 4.20999 10.85 4.05999 10.56 4.05999C8.54999 4.05999 6.52999 4.05999 4.51999 4.05999C4.20999 4.05999 4.06999 4.20999 4.06999 4.50999C4.06999 6.51999 4.06999 8.52999 4.06999 10.54C4.06999 10.85 4.21999 10.99 4.51999 10.99C6.52999 10.99 8.53999 10.99 10.55 10.99C10.86 10.99 11.01 10.85 11.01 10.53C11.01 9.52999 11.01 8.52999 11.01 7.52999L11 7.53999Z" fill="#385CE8"/>
<path d="M10.23 10.23H4.82999V4.84H10.22V10.23H10.23Z" fill="#385CE8"/>
</svg>
