<svg width="16" height="16" viewBox="0 0 16 16" fill="none" xmlns="http://www.w3.org/2000/svg">
<path d="M0.961665 0.45963L0.459619 0.961676C0.205778 1.21552 0.205779 1.62707 0.459619 1.88091L13.1805 14.6018C13.4343 14.8556 13.8459 14.8556 14.0997 14.6018L14.6018 14.0997C14.8556 13.8459 14.8556 13.4343 14.6018 13.1805L1.8809 0.45963C1.62706 0.205789 1.21551 0.205789 0.961665 0.45963Z" fill="#D3D7DB"/>
<path d="M13.1805 0.459621L0.459619 13.1805C0.205779 13.4343 0.205778 13.8459 0.459619 14.0997L0.961665 14.6018C1.21551 14.8556 1.62706 14.8556 1.8809 14.6018L14.6018 1.88091C14.8556 1.62706 14.8556 1.21551 14.6018 0.961666L14.0997 0.45962C13.8459 0.205779 13.4343 0.20578 13.1805 0.459621Z" fill="#D3D7DB"/>
</svg>
