<svg width="16" height="16" viewBox="0 0 16 16" fill="none" xmlns="http://www.w3.org/2000/svg">
<path d="M0.961665 0.4596L0.459619 0.961646C0.205778 1.21549 0.205779 1.62704 0.459619 1.88088L13.1805 14.6017C13.4343 14.8556 13.8459 14.8556 14.0997 14.6017L14.6018 14.0997C14.8556 13.8458 14.8556 13.4343 14.6018 13.1804L1.8809 0.459599C1.62706 0.205759 1.21551 0.205759 0.961665 0.4596Z" fill="#040404"/>
<path d="M13.1805 0.459667L0.459619 13.1805C0.205779 13.4344 0.205778 13.8459 0.459619 14.0998L0.961665 14.6018C1.21551 14.8556 1.62706 14.8556 1.8809 14.6018L14.6018 1.88095C14.8556 1.62711 14.8556 1.21555 14.6018 0.961711L14.0997 0.459666C13.8459 0.205825 13.4343 0.205826 13.1805 0.459667Z" fill="#040404"/>
</svg>
