<svg width="14" height="12" viewBox="0 0 14 12" fill="none" xmlns="http://www.w3.org/2000/svg">
<path fill-rule="evenodd" clip-rule="evenodd" d="M6.95005 4.12V7.07C6.95005 7.3 6.76005 7.49 6.53005 7.49C6.30005 7.49 6.11005 7.3 6.11005 7.07V4.12C6.11005 3.89 6.30005 3.7 6.53005 3.7C6.76005 3.7 6.95005 3.89 6.95005 4.12ZM6.83005 8.67C6.91005 8.74 6.95005 8.85 6.95005 8.97C6.95005 9.09 6.90005 9.19 6.83005 9.26C6.75005 9.34 6.65005 9.39 6.53005 9.39C6.41005 9.39 6.31005 9.34 6.23005 9.26C6.16005 9.18 6.11005 9.08 6.11005 8.97C6.11005 8.86 6.15005 8.75 6.23005 8.67C6.39005 8.51 6.67005 8.52 6.82005 8.67M11.7101 10.82H1.35005C0.890053 10.82 0.700053 10.5 0.930053 10.1L6.11005 1.13C6.22005 0.93 6.38005 0.83 6.53005 0.83C6.68005 0.83 6.83005 0.93 6.95005 1.13L12.1301 10.1C12.3601 10.5 12.1701 10.82 11.7101 10.82ZM12.8501 9.68L7.67005 0.71C7.41005 0.26 6.99005 0 6.53005 0C6.07005 0 5.65005 0.26 5.39005 0.71L0.210053 9.69C-0.0499467 10.14 -0.0699468 10.63 0.160053 11.03C0.390053 11.43 0.820053 11.66 1.35005 11.66H11.7101C12.2301 11.66 12.6701 11.43 12.9001 11.03C13.1301 10.63 13.1101 10.14 12.8501 9.69" fill="#D96D99"/>
</svg>
