<svg width="21" height="36" viewBox="0 0 21 36" fill="none" xmlns="http://www.w3.org/2000/svg">
<path d="M9.60267 35.48V0.386663H11.992V35.48H9.60267ZM10.536 31.2987C8.54489 31.2987 6.64089 31 4.824 30.4027C3.00711 29.7804 1.576 28.984 0.530667 28.0133L1.912 25.1013C2.90756 25.9724 4.17689 26.6942 5.72 27.2667C7.26311 27.8391 8.86845 28.1253 10.536 28.1253C12.0542 28.1253 13.2862 27.9511 14.232 27.6027C15.1778 27.2542 15.8747 26.7813 16.3227 26.184C16.7707 25.5618 16.9947 24.8649 16.9947 24.0933C16.9947 23.1973 16.696 22.4756 16.0987 21.928C15.5262 21.3804 14.7671 20.9449 13.8213 20.6213C12.9004 20.2729 11.88 19.9742 10.76 19.7253C9.64 19.4764 8.50756 19.1902 7.36267 18.8667C6.24267 18.5182 5.20978 18.0827 4.264 17.56C3.34311 17.0373 2.59644 16.3404 2.024 15.4693C1.45156 14.5733 1.16533 13.4284 1.16533 12.0347C1.16533 10.6907 1.51378 9.45866 2.21067 8.33866C2.93244 7.19377 4.02756 6.28533 5.496 5.61333C6.98933 4.91644 8.88089 4.568 11.1707 4.568C12.6889 4.568 14.1947 4.76711 15.688 5.16533C17.1813 5.56355 18.4756 6.136 19.5707 6.88266L18.3387 9.86933C17.2187 9.12266 16.0364 8.58755 14.792 8.264C13.5476 7.91555 12.3404 7.74133 11.1707 7.74133C9.70222 7.74133 8.49511 7.928 7.54933 8.30133C6.60356 8.67466 5.90667 9.17244 5.45867 9.79466C5.03556 10.4169 4.824 11.1138 4.824 11.8853C4.824 12.8062 5.11022 13.5404 5.68267 14.088C6.28 14.6356 7.03911 15.0711 7.96 15.3947C8.90578 15.7182 9.93867 16.0169 11.0587 16.2907C12.1787 16.5396 13.2987 16.8258 14.4187 17.1493C15.5636 17.4729 16.5964 17.896 17.5173 18.4187C18.4631 18.9413 19.2222 19.6382 19.7947 20.5093C20.3671 21.3804 20.6533 22.5004 20.6533 23.8693C20.6533 25.1884 20.2924 26.4204 19.5707 27.5653C18.8489 28.6853 17.7289 29.5938 16.2107 30.2907C14.7173 30.9627 12.8258 31.2987 10.536 31.2987Z" fill="#7C7C7C"/>
</svg>
