<svg width="47" height="47" viewBox="0 0 47 47" fill="none" xmlns="http://www.w3.org/2000/svg">
<path d="M32.04 18.89C29.45 18.89 27.34 16.78 27.34 14.19C27.34 13.48 27.51 12.82 27.79 12.21H17.91C14.35 12.21 11.47 15.09 11.47 18.65V28.68C11.47 32.24 14.35 35.12 17.91 35.12H27.94C31.5 35.12 34.38 32.24 34.38 28.68V18.65C34.38 18.52 34.35 18.39 34.34 18.26C33.66 18.65 32.88 18.88 32.04 18.88V18.89ZM30.28 22.54L26.17 26.63C25.63 27.17 24.76 27.23 24.15 26.77L21.36 24.66L17.36 28.78C17.19 28.96 16.97 29.04 16.74 29.04C16.51 29.04 16.31 28.96 16.14 28.8C15.8 28.47 15.79 27.92 16.12 27.58L20.23 23.34C20.77 22.78 21.64 22.71 22.27 23.18L25.06 25.29L29.06 21.31C29.4 20.98 29.94 20.97 30.28 21.31C30.62 21.65 30.61 22.19 30.28 22.53V22.54Z" fill="#385CE8"/>
<path d="M32.04 16.9C32.75 16.9 33.39 16.62 33.88 16.17C34.41 15.67 34.75 14.97 34.75 14.19C34.75 12.7 33.53 11.48 32.04 11.48C31.16 11.48 30.39 11.9 29.9 12.55C29.55 13.01 29.33 13.57 29.33 14.19C29.33 15.68 30.55 16.9 32.04 16.9Z" fill="#385CE8"/>
<path d="M23.11 46.22C35.8733 46.22 46.22 35.8733 46.22 23.11C46.22 10.3467 35.8733 0 23.11 0C10.3467 0 0 10.3467 0 23.11C0 35.8733 10.3467 46.22 23.11 46.22Z" fill="#385CE8" fill-opacity="0.2"/>
</svg>
