<svg width="16" height="16" viewBox="0 0 16 16" fill="none" xmlns="http://www.w3.org/2000/svg">
<path d="M7.88 0C3.53 0 0 3.53 0 7.88C0 12.23 3.53 15.76 7.88 15.76C12.23 15.76 15.76 12.23 15.76 7.88C15.76 3.53 12.23 0 7.88 0ZM7.88 14.63C4.15 14.63 1.13 11.61 1.13 7.88C1.13 4.15 4.15 1.13 7.88 1.13C11.61 1.13 14.63 4.15 14.63 7.88C14.63 11.61 11.61 14.63 7.88 14.63ZM8.44 7.31V11.81C8.44 12.12 8.19 12.37 7.88 12.37C7.57 12.37 7.32 12.12 7.32 11.81V7.87C7.01 7.87 6.76 7.62 6.76 7.31C6.76 7 7.01 6.75 7.32 6.75H7.88C8.19 6.75 8.44 7 8.44 7.31ZM8.44 4.78C8.44 5.25 8.06 5.62 7.6 5.62C7.14 5.62 6.76 5.24 6.76 4.78C6.76 4.32 7.14 3.94 7.6 3.94C8.06 3.94 8.44 4.32 8.44 4.78Z" fill="#65DB9C"/>
</svg>
