<svg width="159" height="35" viewBox="0 0 159 35" fill="none" xmlns="http://www.w3.org/2000/svg">
<path d="M15.74 33.48C24.433 33.48 31.48 26.433 31.48 17.74C31.48 9.04704 24.433 2 15.74 2C7.04704 2 0 9.04704 0 17.74C0 26.433 7.04704 33.48 15.74 33.48Z" fill="url(#paint0_linear_702_301)"/>
<path d="M11.992 16.548H21.736V19.544H11.992V16.548ZM12.272 24.948H23.332V28H8.632V8.4H22.94V11.452H12.272V24.948Z" fill="white"/>
<path d="M47.722 15.548H57.466V18.544H47.722V15.548ZM48.002 23.948H59.062V27H44.362V7.4H58.67V10.452H48.002V23.948ZM71.8591 27V23.976L71.6631 23.332V18.04C71.6631 17.0133 71.3551 16.22 70.7391 15.66C70.1231 15.0813 69.1897 14.792 67.9391 14.792C67.0991 14.792 66.2684 14.9227 65.4471 15.184C64.6444 15.4453 63.9631 15.8093 63.4031 16.276L62.0311 13.728C62.8337 13.112 63.7857 12.6547 64.8871 12.356C66.0071 12.0387 67.1644 11.88 68.3591 11.88C70.5244 11.88 72.1951 12.4027 73.3711 13.448C74.5657 14.4747 75.1631 16.0707 75.1631 18.236V27H71.8591ZM67.1551 27.196C66.0351 27.196 65.0551 27.0093 64.2151 26.636C63.3751 26.244 62.7217 25.712 62.2551 25.04C61.8071 24.3493 61.5831 23.5747 61.5831 22.716C61.5831 21.876 61.7791 21.12 62.1711 20.448C62.5817 19.776 63.2444 19.244 64.1591 18.852C65.0737 18.46 66.2871 18.264 67.7991 18.264H72.1391V20.588H68.0511C66.8564 20.588 66.0537 20.784 65.6431 21.176C65.2324 21.5493 65.0271 22.016 65.0271 22.576C65.0271 23.2107 65.2791 23.7147 65.7831 24.088C66.2871 24.4613 66.9871 24.648 67.8831 24.648C68.7417 24.648 69.5071 24.452 70.1791 24.06C70.8697 23.668 71.3644 23.0893 71.6631 22.324L72.2511 24.424C71.9151 25.3013 71.3084 25.9827 70.4311 26.468C69.5724 26.9533 68.4804 27.196 67.1551 27.196ZM84.2749 27.196C83.0242 27.196 81.8202 27.0373 80.6629 26.72C79.5242 26.384 78.6189 25.9827 77.9469 25.516L79.2909 22.856C79.9629 23.2853 80.7656 23.64 81.6989 23.92C82.6322 24.2 83.5656 24.34 84.4989 24.34C85.6002 24.34 86.3936 24.1907 86.8789 23.892C87.3829 23.5933 87.6349 23.192 87.6349 22.688C87.6349 22.2773 87.4669 21.9693 87.1309 21.764C86.7949 21.54 86.3562 21.372 85.8149 21.26C85.2736 21.148 84.6669 21.0453 83.9949 20.952C83.3416 20.8587 82.6789 20.7373 82.0069 20.588C81.3536 20.42 80.7562 20.1867 80.2149 19.888C79.6736 19.5707 79.2349 19.1507 78.8989 18.628C78.5629 18.1053 78.3949 17.4147 78.3949 16.556C78.3949 15.604 78.6656 14.7827 79.2069 14.092C79.7482 13.3827 80.5042 12.8413 81.4749 12.468C82.4642 12.076 83.6309 11.88 84.9749 11.88C85.9829 11.88 87.0002 11.992 88.0269 12.216C89.0536 12.44 89.9029 12.7573 90.5749 13.168L89.2309 15.828C88.5216 15.3987 87.8029 15.1093 87.0749 14.96C86.3656 14.792 85.6562 14.708 84.9469 14.708C83.8829 14.708 83.0896 14.8667 82.5669 15.184C82.0629 15.5013 81.8109 15.9027 81.8109 16.388C81.8109 16.836 81.9789 17.172 82.3149 17.396C82.6509 17.62 83.0896 17.7973 83.6309 17.928C84.1722 18.0587 84.7696 18.1707 85.4229 18.264C86.0949 18.3387 86.7576 18.46 87.4109 18.628C88.0642 18.796 88.6616 19.0293 89.2029 19.328C89.7629 19.608 90.2109 20.0093 90.5469 20.532C90.8829 21.0547 91.0509 21.736 91.0509 22.576C91.0509 23.5093 90.7709 24.3213 90.2109 25.012C89.6696 25.7027 88.8949 26.244 87.8869 26.636C86.8789 27.0093 85.6749 27.196 84.2749 27.196ZM95.0236 32.628C94.2956 32.628 93.5676 32.5067 92.8396 32.264C92.1116 32.0213 91.5049 31.6853 91.0196 31.256L92.4196 28.68C92.7743 28.9973 93.1756 29.2493 93.6236 29.436C94.0716 29.6227 94.5289 29.716 94.9956 29.716C95.6303 29.716 96.1436 29.5573 96.5356 29.24C96.9276 28.9227 97.2916 28.3907 97.6276 27.644L98.4956 25.684L98.7756 25.264L104.432 12.048H107.792L100.792 28.204C100.325 29.324 99.8023 30.2107 99.2236 30.864C98.6636 31.5173 98.0289 31.9747 97.3196 32.236C96.6289 32.4973 95.8636 32.628 95.0236 32.628ZM98.1036 27.532L91.3556 12.048H94.9956L100.484 24.956L98.1036 27.532ZM116.017 27.196C114.375 27.196 113.105 26.776 112.209 25.936C111.313 25.0773 110.865 23.8173 110.865 22.156V8.744H114.365V22.072C114.365 22.7813 114.543 23.332 114.897 23.724C115.271 24.116 115.784 24.312 116.437 24.312C117.221 24.312 117.875 24.1067 118.397 23.696L119.377 26.188C118.967 26.524 118.463 26.776 117.865 26.944C117.268 27.112 116.652 27.196 116.017 27.196ZM108.401 14.96V12.16H118.369V14.96H108.401ZM128.584 27.196C127.315 27.196 126.195 26.9627 125.224 26.496C124.254 26.0107 123.498 25.2827 122.956 24.312C122.415 23.3227 122.144 22.0813 122.144 20.588V12.048H125.644V20.112C125.644 21.456 125.943 22.464 126.54 23.136C127.156 23.7893 128.024 24.116 129.144 24.116C129.966 24.116 130.675 23.948 131.272 23.612C131.888 23.276 132.364 22.772 132.7 22.1C133.055 21.428 133.232 20.5973 133.232 19.608V12.048H136.732V27H133.4V22.968L133.988 24.2C133.484 25.1707 132.747 25.9173 131.776 26.44C130.806 26.944 129.742 27.196 128.584 27.196ZM149.799 11.88C150.994 11.88 152.058 12.1133 152.991 12.58C153.943 13.0467 154.69 13.7653 155.231 14.736C155.772 15.688 156.043 16.92 156.043 18.432V27H152.543V18.88C152.543 17.5547 152.226 16.5653 151.591 15.912C150.975 15.2587 150.107 14.932 148.987 14.932C148.166 14.932 147.438 15.1 146.803 15.436C146.168 15.772 145.674 16.276 145.319 16.948C144.983 17.6013 144.815 18.432 144.815 19.44V27H141.315V12.048H144.647V16.08L144.059 14.848C144.582 13.896 145.338 13.168 146.327 12.664C147.335 12.1413 148.492 11.88 149.799 11.88Z" fill="black"/>
<defs>
<linearGradient id="paint0_linear_702_301" x1="0" y1="17.74" x2="31.47" y2="17.74" gradientUnits="userSpaceOnUse">
<stop offset="0.18" stop-color="#4DADD8"/>
<stop offset="1" stop-color="#81E9C0"/>
</linearGradient>
</defs>
</svg>
