<svg width="50" height="50" viewBox="0 0 50 50" fill="none" xmlns="http://www.w3.org/2000/svg">
<path d="M24.87 49.74C38.6053 49.74 49.74 38.6053 49.74 24.87C49.74 11.1347 38.6053 0 24.87 0C11.1347 0 0 11.1347 0 24.87C0 38.6053 11.1347 49.74 24.87 49.74Z" fill="#385CE8" fill-opacity="0.2"/>
<path d="M14.0999 16.8701H35.6499C35.8899 16.8701 36.1199 16.9101 36.3199 17.0001L25.5099 26.1801C25.1199 26.5101 24.6299 26.5101 24.2399 26.1801L13.4199 17.0001C13.6299 16.9201 13.8599 16.8701 14.0899 16.8701H14.0999Z" fill="#385CE8"/>
<path d="M12.25 31.0302V18.7102C12.25 18.6202 12.25 18.5302 12.27 18.4402L19.91 24.9102L12.4 31.7602C12.3 31.5402 12.26 31.2902 12.26 31.0302H12.25Z" fill="#385CE8"/>
<path d="M35.6499 32.8801H14.0999C14.0399 32.8801 13.9799 32.8801 13.9299 32.8801L21.3399 26.1301L23.0599 27.5901C24.1099 28.4801 25.6699 28.4801 26.7199 27.5901L28.4499 26.1201L35.8399 32.8801C35.7799 32.8801 35.7199 32.8801 35.6599 32.8801H35.6499Z" fill="#385CE8"/>
<path d="M37.5001 31.0302C37.5001 31.2902 37.4501 31.5402 37.3601 31.7602L29.8601 24.9002L37.4801 18.4402C37.4901 18.5302 37.5001 18.6202 37.5001 18.7102V31.0302Z" fill="#385CE8"/>
</svg>
