<svg width="11" height="25" viewBox="0 0 11 25" fill="none" xmlns="http://www.w3.org/2000/svg">
<path d="M0 11.62C0 9.07998 0 6.52998 0 3.98998C0 2.08998 1.2 0.559976 3.04 0.109976C5.25 -0.440024 7.56 1.18998 7.77 3.44998C7.8 3.76998 7.82 4.09998 7.82 4.42998C7.82 8.41998 7.82 12.41 7.82 16.41C7.82 17.73 7.04 18.74 5.78 19.06C4.35 19.42 2.82 18.39 2.64 16.92C2.61 16.67 2.59 16.42 2.59 16.18C2.59 14.32 2.59 12.46 2.59 10.6C2.59 9.93998 2.97 9.55998 3.57 9.59998C3.94 9.62998 4.27 9.93998 4.31 10.32C4.32 10.45 4.32 10.59 4.32 10.72C4.32 12.57 4.32 14.42 4.32 16.28C4.32 16.48 4.34 16.69 4.41 16.87C4.55 17.25 4.9 17.43 5.34 17.38C5.69 17.34 5.98 17.06 6.04 16.69C6.06 16.58 6.07 16.46 6.07 16.35C6.07 12.27 6.07 8.18998 6.07 4.11998C6.07 2.89998 5.41 2.06998 4.28 1.81998C3.18 1.57998 1.96 2.39998 1.77 3.51998C1.73 3.73998 1.71 3.95998 1.71 4.17998C1.73 9.23998 1.74 14.29 1.76 19.35C1.76 20.98 3.2 22.48 4.83 22.65C6.77 22.84 8.35 21.49 8.64 19.82C8.69 19.5 8.7 19.17 8.7 18.85C8.7 14.05 8.68 9.24998 8.67 4.45998C8.67 3.99998 8.88 3.69998 9.29 3.56998C9.65 3.45998 10.04 3.57998 10.24 3.91998C10.34 4.07998 10.39 4.29998 10.39 4.48998C10.4 6.19998 10.39 7.90998 10.4 9.60998C10.41 12.75 10.43 15.89 10.44 19.02C10.44 20.08 10.2 21.09 9.62 21.99C8.47 23.76 6.81 24.54 4.74 24.37C2.4 24.18 0.6 22.52 0.11 20.21C0.04 19.86 0.02 19.49 0.02 19.13C0.02 16.64 0.02 14.16 0.02 11.67H0V11.62Z" fill="white"/>
</svg>
