<svg width="14" height="12" viewBox="0 0 14 12" fill="none" xmlns="http://www.w3.org/2000/svg">
<path fill-rule="evenodd" clip-rule="evenodd" d="M7.15969 2.91V7.39C7.15969 7.74 6.87969 8.02 6.52969 8.02C6.17969 8.02 5.89969 7.74 5.89969 7.39V2.91C5.89969 2.56 6.17969 2.28 6.52969 2.28C6.87969 2.28 7.15969 2.56 7.15969 2.91ZM6.97969 9.18C7.09969 9.29 7.15969 9.46 7.15969 9.63C7.15969 9.8 7.08969 9.96 6.97969 10.07C6.85969 10.19 6.69969 10.26 6.52969 10.26C6.35969 10.26 6.19969 10.19 6.07969 10.07C5.96969 9.96 5.89969 9.79 5.89969 9.63C5.89969 9.47 5.95969 9.3 6.07969 9.18C6.31969 8.94 6.74969 8.95 6.97969 9.18ZM12.8497 9.69L7.66969 0.71C7.40969 0.26 6.98969 0 6.52969 0C6.06969 0 5.64969 0.26 5.38969 0.71L0.209687 9.69C-0.050313 10.14 -0.070313 10.63 0.159687 11.03C0.389687 11.43 0.819687 11.66 1.34969 11.66H11.7097C12.2297 11.66 12.6697 11.43 12.8997 11.03C13.1297 10.63 13.1097 10.14 12.8497 9.69Z" fill="#D96D99"/>
</svg>
